<svg xmlns="http://www.w3.org/2000/svg" enable-background="new 0 0 47.5 47.5" viewBox="0 0 47.5 47.5" id="low"><defs><clipPath id="a"><path d="M0 38h38V0H0v38Z"></path></clipPath></defs><g clip-path="url(#a)" transform="matrix(1.25 0 0 -1.25 0 47.5)"><path fill="#dd2e44" d="m0 0 12.234 12.234a2.5 2.5 0 1 1-3.535 3.536L-3.535 3.535-15.77 15.77a2.5 2.5 0 1 1-3.535-3.536L-7.07 0l-12.262-12.262a2.498 2.498 0 0 1 1.768-4.268c.639 0 1.279.244 1.767.733L-3.535-3.535 8.699-15.769a2.494 2.494 0 0 1 1.768-.732 2.498 2.498 0 0 1 1.767 4.267L0 0Z" transform="translate(22.533 18.998)"></path></g></svg>